<?xml version="1.0" standalone="no"?>
<!DOCTYPE svg PUBLIC "-//W3C//DTD SVG 20010904//EN"
 "http://www.w3.org/TR/2001/REC-SVG-20010904/DTD/svg10.dtd">
<svg version="1.0" xmlns="http://www.w3.org/2000/svg"
 width="512.000000pt" height="512.000000pt" viewBox="0 0 512.000000 512.000000"
 preserveAspectRatio="xMidYMid meet">
<metadata>
Created by potrace 1.16, written by Peter Selinger 2001-2019
</metadata>
<g transform="translate(0.000000,512.000000) scale(0.100000,-0.100000)"
fill="#000000" stroke="none">
<path d="M2400 4383 c-94 -6 -205 -25 -232 -39 -24 -12 -28 -21 -28 -55 0 -36
-3 -40 -31 -46 -17 -3 -37 -17 -46 -30 -24 -36 -5 -66 69 -105 51 -27 67 -41
86 -79 45 -90 52 -160 52 -520 l0 -337 -35 -48 c-19 -27 -43 -65 -54 -84 -17
-32 -213 -502 -281 -675 -76 -195 -267 -659 -330 -805 -141 -325 -140 -321
-140 -385 0 -178 204 -360 484 -430 273 -69 731 -81 1083 -30 146 22 212 40
318 90 204 95 305 217 336 403 16 97 5 158 -76 417 -80 260 -121 374 -296 835
-163 431 -161 427 -199 489 l-30 48 0 524 c0 606 -3 585 84 606 53 13 86 37
86 63 0 21 -31 50 -53 50 -13 0 -15 6 -11 30 8 39 -16 75 -58 89 -77 24 -497
39 -698 24z m591 -37 c122 -17 141 -27 137 -69 l-3 -32 -300 -3 c-165 -1 -381
1 -480 5 l-180 8 -3 27 c-4 35 16 45 126 62 120 19 575 20 703 2z m-870 -152
c15 -13 36 -14 185 -3 112 8 281 10 500 6 217 -4 334 -3 341 4 12 12 43 1 43
-15 0 -21 -23 -36 -58 -36 -48 0 -67 -14 -86 -60 -14 -35 -16 -105 -16 -569
l0 -529 40 -79 c38 -73 184 -462 177 -469 -2 -2 -41 89 -87 202 -46 113 -94
220 -106 238 -65 88 -59 26 -59 626 l0 545 26 53 c28 57 17 72 -20 26 -45 -57
-46 -70 -46 -624 0 -583 -6 -531 67 -622 15 -18 82 -161 148 -318 123 -287
146 -338 135 -290 -5 22 -4 23 5 7 7 -10 9 -25 6 -33 -3 -8 -2 -13 2 -10 11 7
141 -348 207 -564 29 -96 61 -195 69 -220 46 -126 39 -288 -19 -405 -18 -39
-46 -82 -61 -95 l-28 -25 26 32 c46 57 65 126 71 266 3 70 2 154 -3 185 -12
71 -110 395 -122 403 -6 3 -8 10 -6 14 7 18 -53 46 -137 64 -49 11 -91 19 -92
17 -2 -2 14 -45 37 -97 60 -141 182 -479 187 -521 6 -41 -3 -88 -16 -88 -5 0
-7 24 -4 53 5 47 -3 74 -85 297 -50 135 -102 276 -116 313 -15 38 -22 66 -16
62 16 -10 13 1 -45 132 -62 139 -279 665 -290 701 -4 16 -12 21 -24 17 -11 -3
-23 5 -34 23 -15 23 -17 24 -12 5 6 -22 4 -23 -53 -23 -44 0 -61 -4 -66 -15
-4 -12 6 -15 62 -15 80 0 97 -8 87 -41 -5 -20 -4 -21 5 -9 10 12 11 11 7 -8
-3 -14 -1 -20 6 -15 6 4 8 0 4 -10 -3 -9 -2 -17 3 -19 5 -2 11 -12 13 -23 4
-32 18 -49 27 -35 5 8 9 8 13 -3 5 -13 -13 -15 -115 -16 -67 -1 -125 -4 -130
-7 -25 -16 16 -24 117 -24 l114 0 21 -47 c25 -55 90 -220 90 -228 0 -3 -74 -5
-165 -5 -158 0 -165 -1 -165 -20 0 -19 7 -20 170 -20 l170 0 15 -32 c20 -45
85 -214 85 -221 0 -4 -82 -8 -182 -9 -155 -3 -183 -5 -183 -18 0 -11 17 -16
70 -20 61 -4 65 -6 36 -12 -18 -5 -44 -8 -57 -8 -13 0 -65 -13 -116 -30 -65
-20 -131 -32 -218 -40 -69 -6 -161 -16 -204 -23 l-80 -12 -31 -105 -32 -105
-54 -2 c-37 -2 -48 0 -34 6 14 6 29 35 48 96 16 47 27 88 25 91 -2 2 -44 -7
-94 -20 -49 -13 -120 -31 -159 -40 -38 -9 -80 -19 -93 -22 -22 -6 -22 -6 9 82
17 49 87 231 156 404 69 173 162 410 208 526 103 261 116 286 175 350 28 30
53 67 59 90 14 50 15 682 1 754 -15 77 -52 152 -99 199 -56 56 -86 55 -36 0
42 -47 67 -99 90 -184 12 -48 15 -127 15 -408 0 -242 -3 -355 -11 -370 -7 -12
-29 -41 -50 -64 -21 -22 -47 -60 -59 -82 -47 -94 -530 -1315 -530 -1342 0 -43
215 -87 473 -97 103 -5 166 -11 165 -17 -2 -6 -44 -9 -109 -7 l-106 3 -37
-149 c-42 -167 -52 -192 -82 -203 -27 -10 -64 15 -64 42 0 11 18 83 40 159 22
76 40 142 40 147 0 5 -40 14 -89 21 -74 10 -172 37 -242 66 -13 6 -29 -22 -84
-146 -121 -274 -131 -317 -90 -415 22 -53 6 -38 -20 20 -30 64 -32 138 -6 204
10 27 55 132 99 234 45 103 117 276 160 385 44 110 101 251 127 314 26 63 103
255 172 425 137 338 165 401 212 459 17 21 33 52 36 70 4 17 5 191 3 386 -3
341 -4 358 -27 422 -26 74 -67 120 -134 153 -32 15 -43 26 -45 48 -4 31 12 36
39 11z m829 -1709 c0 -5 -5 -3 -10 5 -5 8 -10 20 -10 25 0 6 5 3 10 -5 5 -8
10 -19 10 -25z m30 -70 c0 -5 -5 -3 -10 5 -5 8 -10 20 -10 25 0 6 5 3 10 -5 5
-8 10 -19 10 -25z m290 -20 c0 -5 -5 -3 -10 5 -5 8 -10 20 -10 25 0 6 5 3 10
-5 5 -8 10 -19 10 -25z m-257 -62 c14 -35 22 -63 19 -63 -4 0 -16 24 -26 53
-10 28 -21 59 -24 67 -14 40 9 -2 31 -57z m77 -197 c17 -43 29 -84 27 -90 -2
-6 -11 10 -19 34 -9 25 -26 70 -38 100 -12 30 -17 51 -11 45 5 -5 24 -45 41
-89z m43 -111 c-3 -9 -8 -14 -10 -11 -3 3 -2 9 2 15 9 16 15 13 8 -4z m10 -45
c3 -11 1 -18 -4 -14 -5 3 -9 12 -9 20 0 20 7 17 13 -6z m27 0 c6 -11 8 -20 6
-20 -3 0 -10 9 -16 20 -6 11 -8 20 -6 20 3 0 10 -9 16 -20z m-138 -52 c9 -7
47 -112 86 -233 150 -470 150 -472 106 -524 -52 -63 -63 -47 -118 170 -25 96
-70 263 -100 372 -31 110 -56 203 -56 207 0 9 22 17 51 19 8 0 22 -5 31 -11z
m-242 -42 c0 -3 -4 -8 -10 -11 -5 -3 -10 -1 -10 4 0 6 5 11 10 11 6 0 10 -2
10 -4z m135 -42 c-71 -8 -165 -8 -165 -1 0 4 44 6 98 5 53 0 84 -3 67 -4z
m495 -39 c-28 -16 -130 -20 -130 -6 0 6 27 10 61 10 33 0 63 2 67 5 3 3 10 6
16 6 6 -1 0 -7 -14 -15z m-613 -17 c-57 -6 -97 -6 -115 0 -21 8 0 10 88 10
l115 -1 -88 -9z m689 -211 c45 -131 51 -156 33 -124 -17 29 -109 297 -108 315
1 20 15 -17 75 -191z m-673 166 c-13 -2 -33 -2 -45 0 -13 2 -3 4 22 4 25 0 35
-2 23 -4z m-43 -43 c0 -11 -4 -20 -10 -20 -5 0 -10 9 -10 20 0 11 5 20 10 20
6 0 10 -9 10 -20z m113 -37 c-23 -2 -64 -2 -90 0 -26 2 -7 3 42 3 50 0 71 -1
48 -3z m-968 -43 c60 -14 73 -18 39 -15 -42 4 -149 31 -134 34 3 0 46 -8 95
-19z m968 -21 c-9 -9 -44 -9 -130 -2 l-118 10 130 1 c96 2 126 -1 118 -9z
m-73 -42 l45 -4 -52 -1 c-45 -2 -53 1 -53 16 0 11 3 13 8 5 4 -6 28 -13 52
-16z m-1003 -4 c-3 -10 -21 -74 -42 -143 -43 -150 -51 -205 -36 -253 24 -73
125 -132 327 -192 100 -30 110 -35 64 -30 -81 9 -165 33 -255 75 -138 63 -176
111 -176 219 -1 64 7 100 54 244 25 78 35 97 50 97 14 0 18 -5 14 -17z m-146
-20 c-12 -20 -14 -14 -5 12 4 9 9 14 11 11 3 -2 0 -13 -6 -23z m-67 -177 c-30
-82 -54 -163 -54 -180 0 -124 85 -202 304 -282 109 -39 91 -45 -26 -8 -213 67
-301 147 -302 274 -1 46 9 78 63 203 35 81 65 146 67 144 1 -1 -22 -69 -52
-151z m1171 144 c3 -5 1 -10 -4 -10 -6 0 -11 5 -11 10 0 6 2 10 4 10 3 0 8 -4
11 -10z m103 -37 c-21 -2 -57 -2 -80 0 -24 2 -7 4 37 4 44 0 63 -2 43 -4z
m498 -104 c77 -218 -2 -356 -242 -428 -104 -31 -102 -25 3 13 112 41 152 65
197 118 61 71 71 183 26 312 -11 33 -20 61 -20 64 0 15 13 -13 36 -79z m-461
31 c4 -7 -50 -10 -154 -10 -101 0 -161 4 -161 10 0 6 58 10 154 10 93 0 157
-4 161 -10z m-82 -67 c-13 -2 -35 -2 -50 0 -16 2 -5 4 22 4 28 0 40 -2 28 -4z
m-53 -34 c0 -11 -4 -17 -10 -14 -5 3 -10 13 -10 21 0 8 5 14 10 14 6 0 10 -9
10 -21z m95 -49 c-3 -5 -31 -10 -61 -10 -30 0 -54 5 -54 10 0 6 27 10 61 10
37 0 58 -4 54 -10z m565 -293 c-50 -46 -175 -125 -185 -115 -2 2 26 19 62 37
36 19 88 56 117 82 28 27 53 48 56 48 3 0 -20 -23 -50 -52z m-1207 -24 c-7 -2
-19 -2 -25 0 -7 3 -2 5 12 5 14 0 19 -2 13 -5z m804 -19 c-3 -3 -12 -4 -19 -1
-8 3 -5 6 6 6 11 1 17 -2 13 -5z m-50 -10 c-3 -3 -12 -4 -19 -1 -8 3 -5 6 6 6
11 1 17 -2 13 -5z m200 -90 c-3 -3 -12 -4 -19 -1 -8 3 -5 6 6 6 11 1 17 -2 13
-5z m-1210 -20 c-3 -3 -12 -4 -19 -1 -8 3 -5 6 6 6 11 1 17 -2 13 -5z m1130 0
c-3 -3 -12 -4 -19 -1 -8 3 -5 6 6 6 11 1 17 -2 13 -5z m-1080 -10 c-3 -3 -12
-4 -19 -1 -8 3 -5 6 6 6 11 1 17 -2 13 -5z m1020 0 c-3 -3 -12 -4 -19 -1 -8 3
-5 6 6 6 11 1 17 -2 13 -5z m-954 -11 c-7 -2 -19 -2 -25 0 -7 3 -2 5 12 5 14
0 19 -2 13 -5z m880 0 c-7 -2 -19 -2 -25 0 -7 3 -2 5 12 5 14 0 19 -2 13 -5z
m-785 -10 c-10 -2 -26 -2 -35 0 -10 3 -2 5 17 5 19 0 27 -2 18 -5z m705 0 c-7
-2 -21 -2 -30 0 -10 3 -4 5 12 5 17 0 24 -2 18 -5z m-555 -10 c-16 -2 -40 -2
-55 0 -16 2 -3 4 27 4 30 0 43 -2 28 -4z m420 0 c-15 -2 -42 -2 -60 0 -18 2
-6 4 27 4 33 0 48 -2 33 -4z"/>
<path d="M2830 2350 c0 -5 25 -10 55 -10 30 0 55 5 55 10 0 6 -25 10 -55 10
-30 0 -55 -4 -55 -10z"/>
<path d="M2907 2083 c18 -2 50 -2 70 0 21 2 7 4 -32 4 -38 0 -55 -2 -38 -4z"/>
</g>
</svg>